<?xml version="1.0" standalone="no"?>
<!DOCTYPE svg PUBLIC "-//W3C//DTD SVG 20010904//EN"
 "http://www.w3.org/TR/2001/REC-SVG-20010904/DTD/svg10.dtd">
<svg version="1.0" xmlns="http://www.w3.org/2000/svg"
 width="464.000000pt" height="108.000000pt" viewBox="0 0 464.000000 108.000000"
 preserveAspectRatio="xMidYMid meet">
<metadata>
Created by potrace 1.16, written by Peter Selinger 2001-2019
</metadata>
<g transform="translate(0.000000,108.000000) scale(0.100000,-0.100000)"
fill="#000000" stroke="none">
<path d="M2245 793 l0 -98 -25 2 c-103 8 -168 5 -205 -11 -91 -39 -130 -112
-130 -241 1 -132 37 -205 119 -244 116 -54 278 -3 306 97 5 21 10 157 10 315
l0 277 -37 0 -38 0 0 -97z m-22 -172 l27 -11 -1 -132 c-2 -169 -6 -187 -47
-211 -48 -28 -141 -29 -179 -1 -48 35 -67 88 -67 184 0 105 17 143 77 171 45
21 134 21 190 0z"/>
<path d="M4520 795 l0 -94 -77 1 c-169 2 -248 -82 -245 -260 1 -101 24 -163
75 -207 47 -40 90 -55 162 -55 65 0 144 37 176 81 24 34 24 36 27 332 l3 297
-60 0 -61 0 0 -95z m-16 -191 c14 -5 16 -27 16 -144 0 -151 -4 -161 -66 -173
-93 -18 -138 36 -138 165 -1 83 16 120 65 145 25 13 96 17 123 7z"/>
<path d="M1428 530 l-3 -340 218 0 218 0 -3 33 -3 32 -178 3 -178 2 3 118 3
117 153 3 152 3 0 29 0 30 -155 0 -155 0 0 120 0 120 180 0 180 0 0 35 0 35
-215 0 -214 0 -3 -340z"/>
<path d="M3554 848 c-3 -13 -26 -70 -50 -128 -23 -58 -81 -201 -127 -318 l-85
-213 65 3 66 3 30 77 30 78 148 0 148 0 29 -77 30 -78 66 -3 67 -3 -16 37 c-8
21 -70 174 -137 341 l-121 303 -68 0 c-61 0 -68 -2 -75 -22z m129 -250 c26
-68 47 -126 47 -130 0 -5 -46 -8 -101 -8 -92 0 -101 2 -96 18 16 53 92 242 97
242 3 0 27 -55 53 -122z"/>
<path d="M3059 696 c-75 -20 -111 -47 -142 -107 -24 -48 -29 -68 -29 -136 0
-44 6 -100 14 -124 16 -56 80 -120 134 -137 51 -15 146 -14 199 2 35 10 40 16
43 45 3 33 3 33 -25 25 -15 -5 -67 -9 -115 -9 -72 0 -91 4 -115 21 -46 34 -63
79 -63 167 0 124 38 178 135 193 39 5 128 -6 168 -22 16 -6 18 -2 15 27 -3 29
-8 36 -38 45 -58 19 -132 23 -181 10z"/>
<path d="M2407 693 c-11 -11 -8 -325 4 -368 25 -93 98 -145 204 -145 104 0
182 53 205 140 6 22 9 111 8 207 l-3 168 -32 3 -33 3 0 -171 c0 -187 -7 -221
-55 -258 -42 -33 -142 -31 -184 4 -43 36 -51 77 -51 262 l0 162 -28 0 c-16 0
-32 -3 -35 -7z"/>
<path d="M4017 693 c-4 -3 -7 -118 -7 -255 l0 -248 60 0 60 0 0 255 0 255 -53
0 c-30 0 -57 -3 -60 -7z"/>
<path d="M360 360 c-11 -7 -5 -25 24 -82 48 -95 57 -170 28 -226 l-20 -39 36
13 c48 17 81 17 113 0 l26 -13 -28 56 c-32 63 -37 126 -15 170 17 32 81 91 99
91 7 0 3 7 -7 15 -17 13 -23 11 -57 -20 -67 -60 -108 -60 -155 1 -21 29 -35
39 -44 34z"/>
</g>
</svg>
